<svg width="478" height="483" viewBox="0 0 478 483" fill="none" xmlns="http://www.w3.org/2000/svg">
<path d="M468.67 474.647C460.305 482.89 445.947 484.442 426.93 479.945C407.942 475.456 384.468 464.969 358.063 449.384C305.26 418.217 240.841 366.718 177.332 302.271C113.824 237.824 63.2759 172.656 32.8867 119.402C17.6901 92.7718 7.54926 69.1459 3.33845 50.0943C-0.878861 31.0132 0.8835 16.6796 9.24835 8.43652C17.6132 0.193472 31.9712 -1.35846 50.9883 3.13828C69.9761 7.62808 93.4507 18.1144 119.855 33.6999C172.658 64.867 237.078 116.365 300.586 180.812C364.095 245.259 414.643 310.427 445.032 363.682C460.228 390.312 470.369 413.938 474.58 432.989C478.797 452.07 477.035 466.404 468.67 474.647Z" stroke="url(#paint0_linear_269_19)"/>
<defs>
<linearGradient id="paint0_linear_269_19" x1="174.98" y1="293.864" x2="268.849" y2="213.463" gradientUnits="userSpaceOnUse">
<stop stop-color="white"/>
<stop offset="1" stop-opacity="0"/>
</linearGradient>
</defs>
</svg>
