<svg width="15" height="21" viewBox="0 0 15 21" fill="none" xmlns="http://www.w3.org/2000/svg">
<g id="&#240;&#159;&#166;&#134; icon &#34;lock&#34;">
<path id="Vector" d="M13.6364 8.86364H12.2727V6.13636C12.2727 3.47727 10.1591 1.36364 7.50001 1.36364C4.84092 1.36364 2.72728 3.47727 2.72728 6.13636V8.86364H1.36365V6.13636C1.36365 2.72727 4.09092 0 7.50001 0C10.9091 0 13.6364 2.72727 13.6364 6.13636V8.86364Z" fill="#929292"/>
<path id="Vector_2" d="M12.9545 20.4546H2.04545C0.886364 20.4546 0 19.5682 0 18.4091V10.2273C0 9.06819 0.886364 8.18182 2.04545 8.18182H12.9545C14.1136 8.18182 15 9.06819 15 10.2273V18.4091C15 19.5682 14.1136 20.4546 12.9545 20.4546ZM2.04545 9.54546C1.63636 9.54546 1.36364 9.81819 1.36364 10.2273V18.4091C1.36364 18.8182 1.63636 19.0909 2.04545 19.0909H12.9545C13.3636 19.0909 13.6364 18.8182 13.6364 18.4091V10.2273C13.6364 9.81819 13.3636 9.54546 12.9545 9.54546H2.04545Z" fill="#929292"/>
<path id="Vector_3" d="M7.49999 13.6364C8.2531 13.6364 8.86363 13.0259 8.86363 12.2728C8.86363 11.5196 8.2531 10.9091 7.49999 10.9091C6.74687 10.9091 6.13635 11.5196 6.13635 12.2728C6.13635 13.0259 6.74687 13.6364 7.49999 13.6364Z" fill="#929292"/>
<path id="Vector_4" d="M7.84093 12.2727H7.15911L6.47729 16.3636H8.52275L7.84093 12.2727Z" fill="#929292"/>
</g>
</svg>
